<?xml version="1.0" encoding="UTF-8"?><svg id="Laag_1" xmlns="http://www.w3.org/2000/svg" viewBox="0 0 194 529.01"><defs><style>.cls-1{fill:#f21919;}.cls-2{fill:#fff;font-family:AachenStd-Medium, 'Aachen Std';font-size:21.54px;font-weight:500;}</style></defs><circle class="cls-1" cx="57.5" cy="96.5" r="21.5"/><text class="cls-2" transform="translate(50.19 101.94)"><tspan x="0" y="0">m</tspan></text><circle class="cls-1" cx="110.5" cy="50.5" r="21.5"/><text class="cls-2" transform="translate(101.96 53.66) rotate(16.37)"><tspan x="0" y="0">m</tspan></text><circle class="cls-1" cx="50.5" cy="23.5" r="21.5"/><text class="cls-2" transform="translate(43.19 28.94)"><tspan x="0" y="0">m</tspan></text><circle class="cls-1" cx="141.5" cy="109.5" r="21.5"/><text class="cls-2" transform="translate(134.19 114.94)"><tspan x="0" y="0">m</tspan></text><circle class="cls-1" cx="93.5" cy="152.5" r="21.5"/><text class="cls-2" transform="translate(87.96 159.73) rotate(-15.87)"><tspan x="0" y="0">m</tspan></text><circle class="cls-1" cx="68.5" cy="208.5" r="21.5"/><text class="cls-2" transform="translate(59.85 211.34) rotate(18.45)"><tspan x="0" y="0">m</tspan></text><circle class="cls-1" cx="128.5" cy="197.5" r="21.5"/><text class="cls-2" transform="translate(121.19 202.94)"><tspan x="0" y="0">m</tspan></text><circle class="cls-1" cx="102.5" cy="261.5" r="21.5"/><text class="cls-2" transform="translate(95.19 266.94)"><tspan x="0" y="0">m</tspan></text><circle class="cls-1" cx="57.5" cy="291.5" r="21.5"/><text class="cls-2" transform="translate(51.24 298.12) rotate(-9.98)"><tspan x="0" y="0">m</tspan></text><circle class="cls-1" cx="111.5" cy="325.5" r="21.5"/><text class="cls-2" transform="translate(104.19 330.94)"><tspan x="0" y="0">m</tspan></text><circle class="cls-1" cx="158.5" cy="261.5" r="21.5"/><text class="cls-2" transform="translate(149.85 264.35) rotate(18.45)"><tspan x="0" y="0">m</tspan></text><circle class="cls-1" cx="72.5" cy="382.5" r="21.5"/><text class="cls-2" transform="translate(64.1 386.03) rotate(13.84)"><tspan x="0" y="0">m</tspan></text><circle class="cls-1" cx="163.5" cy="352.5" r="21.5"/><text class="cls-2" transform="translate(156.19 357.94)"><tspan x="0" y="0">m</tspan></text><circle class="cls-1" cx="156.5" cy="21.5" r="21.5"/><text class="cls-2" transform="translate(149.19 26.94)"><tspan x="0" y="0">m</tspan></text><circle class="cls-1" cx="124.5" cy="419.5" r="21.5"/><text class="cls-2" transform="translate(118.72 426.54) rotate(-14)"><tspan x="0" y="0">m</tspan></text><circle class="cls-1" cx="77.5" cy="458.5" r="21.5"/><text class="cls-2" transform="translate(70.19 463.94)"><tspan x="0" y="0">m</tspan></text><circle class="cls-1" cx="167.5" cy="458.5" r="21.5"/><text class="cls-2" transform="translate(160.19 463.94)"><tspan x="0" y="0">m</tspan></text><circle class="cls-1" cx="117.5" cy="507.5" r="21.5"/><text class="cls-2" transform="translate(109.1 511.03) rotate(13.84)"><tspan x="0" y="0">m</tspan></text><circle class="cls-1" cx="172.5" cy="404.5" r="21.5"/><text class="cls-2" transform="translate(165.19 409.94)"><tspan x="0" y="0">m</tspan></text><circle class="cls-1" cx="165.5" cy="158.5" r="21.5"/><text class="cls-2" transform="translate(158.19 163.94)"><tspan x="0" y="0">m</tspan></text><circle class="cls-1" cx="43.5" cy="157.5" r="21.5"/><text class="cls-2" transform="translate(34.47 158.73) rotate(28.86)"><tspan x="0" y="0">m</tspan></text><circle class="cls-1" cx="30.55" cy="426.57" r="21.5"/><text class="cls-2" transform="translate(22.16 430.11) rotate(13.84)"><tspan x="0" y="0">m</tspan></text><circle class="cls-1" cx="21.5" cy="229.5" r="21.5"/><text class="cls-2" transform="translate(14.19 234.94)"><tspan x="0" y="0">m</tspan></text><circle class="cls-1" cx="21.5" cy="341.5" r="21.5"/><text class="cls-2" transform="translate(14.19 346.94)"><tspan x="0" y="0">m</tspan></text><circle class="cls-1" cx="50.5" cy="501.5" r="21.5"/><text class="cls-2" transform="translate(43.19 506.94)"><tspan x="0" y="0">m</tspan></text></svg>