<?xml version="1.0" encoding="UTF-8"?><svg id="Laag_2" xmlns="http://www.w3.org/2000/svg" viewBox="0 0 172 529.01"><defs><style>.cls-1{fill:#f21919;}.cls-2{fill:#fff;font-family:AachenStd-Medium, 'Aachen Std';font-size:21.54px;font-weight:500;}</style></defs><g id="Laag_1-2"><circle class="cls-1" cx="35.5" cy="96.5" r="21.5"/><text class="cls-2" transform="translate(28.2 101.94)"><tspan x="0" y="0">m</tspan></text><circle class="cls-1" cx="88.5" cy="50.5" r="21.5"/><text class="cls-2" transform="translate(79.96 53.66) rotate(16.37)"><tspan x="0" y="0">m</tspan></text><circle class="cls-1" cx="28.5" cy="23.5" r="21.5"/><text class="cls-2" transform="translate(21.2 28.94)"><tspan x="0" y="0">m</tspan></text><circle class="cls-1" cx="119.5" cy="109.5" r="21.5"/><text class="cls-2" transform="translate(112.2 114.94)"><tspan x="0" y="0">m</tspan></text><circle class="cls-1" cx="71.5" cy="152.5" r="21.5"/><text class="cls-2" transform="translate(65.96 159.73) rotate(-15.87)"><tspan x="0" y="0">m</tspan></text><circle class="cls-1" cx="46.5" cy="208.5" r="21.5"/><text class="cls-2" transform="translate(37.85 211.34) rotate(18.45)"><tspan x="0" y="0">m</tspan></text><circle class="cls-1" cx="106.5" cy="197.5" r="21.5"/><text class="cls-2" transform="translate(99.2 202.94)"><tspan x="0" y="0">m</tspan></text><circle class="cls-1" cx="80.5" cy="261.5" r="21.5"/><text class="cls-2" transform="translate(73.2 266.94)"><tspan x="0" y="0">m</tspan></text><circle class="cls-1" cx="35.5" cy="291.5" r="21.5"/><text class="cls-2" transform="translate(29.25 298.12) rotate(-9.98)"><tspan x="0" y="0">m</tspan></text><circle class="cls-1" cx="89.5" cy="325.5" r="21.5"/><text class="cls-2" transform="translate(82.2 330.94)"><tspan x="0" y="0">m</tspan></text><circle class="cls-1" cx="136.5" cy="261.5" r="21.5"/><text class="cls-2" transform="translate(127.85 264.35) rotate(18.45)"><tspan x="0" y="0">m</tspan></text><circle class="cls-1" cx="50.5" cy="382.5" r="21.5"/><text class="cls-2" transform="translate(42.11 386.03) rotate(13.84)"><tspan x="0" y="0">m</tspan></text><circle class="cls-1" cx="141.5" cy="352.5" r="21.5"/><text class="cls-2" transform="translate(134.2 357.94)"><tspan x="0" y="0">m</tspan></text><circle class="cls-1" cx="134.5" cy="21.5" r="21.5"/><text class="cls-2" transform="translate(127.2 26.94)"><tspan x="0" y="0">m</tspan></text><circle class="cls-1" cx="102.5" cy="419.5" r="21.5"/><text class="cls-2" transform="translate(96.73 426.54) rotate(-14)"><tspan x="0" y="0">m</tspan></text><circle class="cls-1" cx="55.5" cy="458.5" r="21.5"/><text class="cls-2" transform="translate(48.2 463.94)"><tspan x="0" y="0">m</tspan></text><circle class="cls-1" cx="145.5" cy="458.5" r="21.5"/><text class="cls-2" transform="translate(138.2 463.94)"><tspan x="0" y="0">m</tspan></text><circle class="cls-1" cx="95.5" cy="507.5" r="21.5"/><text class="cls-2" transform="translate(87.11 511.03) rotate(13.84)"><tspan x="0" y="0">m</tspan></text><circle class="cls-1" cx="150.5" cy="404.5" r="21.5"/><text class="cls-2" transform="translate(143.2 409.94)"><tspan x="0" y="0">m</tspan></text><circle class="cls-1" cx="143.5" cy="158.5" r="21.5"/><text class="cls-2" transform="translate(136.2 163.94)"><tspan x="0" y="0">m</tspan></text><circle class="cls-1" cx="21.5" cy="157.5" r="21.5"/><text class="cls-2" transform="translate(12.48 158.73) rotate(28.86)"><tspan x="0" y="0">m</tspan></text></g></svg>